<svg viewBox="0 0 181 181" xmlns="http://www.w3.org/2000/svg" fill-rule="evenodd" clip-rule="evenodd" stroke-linejoin="round" stroke-miterlimit="2"><path d="M90.489 2.236c-49.972 0-90.49 40.517-90.49 90.5 0 39.984 25.929 73.9 61.89 85.873 4.528.828 6.178-1.967 6.178-4.367 0-2.144-.078-7.839-.123-15.389-25.172 5.467-30.483-12.133-30.483-12.133-4.117-10.45-10.05-13.233-10.05-13.233-8.217-5.617.622-5.506.622-5.506 9.084.644 13.861 9.328 13.861 9.328 8.073 13.828 21.184 9.833 26.34 7.522.822-5.85 3.155-9.839 5.744-12.1-20.095-2.283-41.222-10.05-41.222-44.728 0-9.878 3.527-17.955 9.316-24.283-.933-2.29-4.039-11.49.884-23.95 0 0 7.6-2.434 24.888 9.278 7.217-2.006 14.962-3.012 22.656-3.045 7.683.033 15.428 1.039 22.656 3.045 17.277-11.712 24.86-9.278 24.86-9.278 4.94 12.46 1.834 21.66.9 23.95 5.8 6.328 9.306 14.405 9.306 24.283 0 34.767-21.16 42.417-41.322 44.656 3.25 2.794 6.144 8.316 6.144 16.76 0 12.095-.11 21.856-.11 24.823 0 2.422 1.627 5.239 6.222 4.356 35.933-11.995 61.839-45.89 61.839-85.862 0-49.983-40.523-90.5-90.506-90.5" fill="#181717"/></svg>